<?xml version="1.0" encoding="UTF-8" standalone="no"?>
<!-- Created with Inkscape (http://www.inkscape.org/) -->

<svg
   width="210mm"
   height="297mm"
   viewBox="0 0 210 297"
   version="1.1"
   id="svg5"
   inkscape:version="1.1.2 (b8e25be833, 2022-02-05)"
   sodipodi:docname="rysunek.svg"
   xmlns:inkscape="http://www.inkscape.org/namespaces/inkscape"
   xmlns:sodipodi="http://sodipodi.sourceforge.net/DTD/sodipodi-0.dtd"
   xmlns="http://www.w3.org/2000/svg"
   xmlns:svg="http://www.w3.org/2000/svg">
  <sodipodi:namedview
     id="namedview7"
     pagecolor="#505050"
     bordercolor="#eeeeee"
     borderopacity="1"
     inkscape:pageshadow="0"
     inkscape:pageopacity="0"
     inkscape:pagecheckerboard="0"
     inkscape:document-units="mm"
     showgrid="false"
     inkscape:lockguides="true"
     inkscape:zoom="0.74920735"
     inkscape:cx="397.08633"
     inkscape:cy="560.59247"
     inkscape:window-width="1920"
     inkscape:window-height="1027"
     inkscape:window-x="-8"
     inkscape:window-y="-8"
     inkscape:window-maximized="1"
     inkscape:current-layer="layer1" />
  <defs
     id="defs2" />
  <g
     inkscape:label="Warstwa 1"
     inkscape:groupmode="layer"
     id="layer1">
    <path
       id="path151"
       d="m 18.068637,60.839844 c 4.919099,-0.06915 9.838901,-0.07594 14.758399,-0.08902 8.121645,-0.01175 16.243292,-0.01717 24.364929,-0.03423 9.705522,-0.01818 19.411063,-0.01299 29.116591,-0.0013 5.914697,0.02275 11.829417,0.0439 17.744024,0.08479 1.01821,0.128122 2.54312,-0.323236 3.41021,0.488799 0.92448,0.865785 1.03251,2.79723 1.19857,3.919471 0.40519,4.936318 0.30286,9.898859 0.28685,14.847295 -0.0239,6.198507 -0.0353,12.397105 -0.0275,18.595657 0.003,1.214472 0.006,2.428944 0.008,3.643414 0.007,3.58248 0.0714,4.31729 -0.19495,7.96695 -0.3178,4.35408 -1.01375,8.64388 -1.71831,12.94734 -1.48063,7.88277 -2.87894,15.78786 -4.69065,23.60361 -0.40334,1.74001 -0.84287,3.47143 -1.2643,5.20714 -0.44505,1.70779 -0.87205,3.42038 -1.335149,5.12337 -0.971589,3.57289 -1.776272,6.34676 -2.975281,9.84299 -1.552406,4.5267 -3.395181,8.92393 -5.291344,13.31377 -3.04723,6.82122 -6.546451,13.49718 -11.145179,19.41586 -0.893985,1.15058 -1.867903,2.23676 -2.801853,3.35514 -2.74357,2.9387 -5.668716,5.77227 -8.979,8.07821 -0.997421,0.6948 -2.017199,1.36914 -3.102861,1.9159 -0.09401,0.0473 -0.02791,-0.3118 -0.130353,-0.28762 -1.152752,0.27205 -2.249273,0.74307 -3.373911,1.11461 -6.936009,1.78598 -14.131729,1.88151 -21.248081,1.97245 -4.340489,-0.0788 -8.705554,-0.18943 -13.010949,-0.80215 -2.254384,-0.32084 -2.808246,-0.50086 -4.966397,-1.01104 -3.552861,-0.84739 -7.081395,-1.78948 -10.465716,-3.1733 -1.467316,-0.56845 -2.7880997,-1.41653 -4.099716,-2.26965 0,0 -3.2806219,2.1092 -3.2806219,2.1092 v 0 c 1.3474499,0.84861 2.6913559,1.71528 4.1815646,2.30018 3.4213773,1.39428 6.9903943,2.32558 10.5841893,3.16459 2.155555,0.50455 2.787581,0.70122 5.035213,1.01706 4.330186,0.6085 8.720976,0.69441 13.084233,0.80537 7.137619,-0.0846 14.348047,-0.17989 21.320759,-1.89034 1.133645,-0.36028 2.315086,-0.59515 3.400933,-1.08083 2.521911,-1.128 6.827226,-3.38318 9.415801,-5.2228 3.280291,-2.3312 6.177653,-5.17388 8.893932,-8.12532 0.926817,-1.12414 1.892956,-2.21698 2.780448,-3.37242 4.571137,-5.95122 8.08142,-12.63272 11.099289,-19.47935 1.880201,-4.39405 3.70337,-8.79502 5.236848,-13.32561 1.167142,-3.44825 1.995912,-6.33056 2.945772,-9.85016 0.45982,-1.70379 0.88429,-3.41693 1.32643,-5.1254 2.31379,-9.56205 4.33291,-19.19004 6.03745,-28.88033 0.69991,-4.3189 1.38785,-8.62527 1.72061,-12.99222 0.28916,-3.79487 0.22161,-4.29346 0.23412,-8.00703 0.004,-1.218177 0.01,-2.436353 0.0143,-3.654534 0.025,-6.208612 0.0422,-12.417253 0.089,-18.625756 0.0275,-4.979779 0.14138,-9.972823 -0.22195,-14.942862 -0.18776,-1.362435 -0.25261,-3.207102 -1.30803,-4.275357 -0.92801,-0.939284 -2.45709,-0.520468 -3.59617,-0.589304 -5.99241,0.04065 -11.984926,0.06202 -17.977421,0.08479 -9.704287,0.01159 -19.40859,0.01688 -29.112871,-0.0013 -8.090226,-0.01709 -16.180459,-0.02246 -24.270692,-0.03423 -4.837814,-0.01297 -9.675952,-0.019 -14.513345,-0.08902 0,0 -3.185837,2.314647 -3.185837,2.314647 z"
       style="stroke-width:0.264583" />
    <path
       id="path153"
       d="m 115.48586,63.869307 c 0.0987,4.277196 0.10352,8.55603 0.1248,12.834136 0.0348,7.717602 0.0439,15.435262 0.0465,23.15293 -0.0433,1.370007 -0.0647,2.740877 -0.12978,4.110027 -0.0822,1.72963 -0.43716,6.58535 -0.55377,8.29636 -0.28088,4.12128 -0.50844,8.24508 -0.78899,12.36638 -0.70288,8.52157 -1.09857,17.06252 -1.8071,25.58321 -0.11191,1.44406 -0.22492,2.88803 -0.33571,4.33217 -0.11008,1.43488 -0.19454,2.8719 -0.3269,4.3049 -0.25995,2.81425 -0.63586,5.61674 -0.91678,8.42898 -0.096,0.96096 -0.73352,8.05772 -0.81283,8.93724 -0.97461,9.25708 -1.45546,18.55282 -2.21967,27.82732 -0.81319,7.94695 -1.95828,15.86572 -3.56301,23.69197 -0.74873,3.43703 -0.38914,1.81269 -1.07539,4.87375 0,0 3.39418,-1.64074 3.39418,-1.64074 v 0 c 0.60937,-3.02966 0.28716,-1.42089 0.96558,-4.82652 1.49138,-7.83598 2.6685,-15.73519 3.43826,-23.67604 0.75202,-9.27231 1.18992,-18.56869 2.21021,-27.81859 0.089,-0.94834 0.7406,-7.91711 0.84568,-8.94705 0.58005,-5.68526 1.25214,-11.35929 1.5642,-17.06906 0.68519,-8.52951 1.14152,-17.07379 1.83478,-25.60296 0.27033,-4.11912 0.49395,-8.24051 0.77679,-12.35882 0.14408,-2.09788 0.45699,-6.20196 0.55454,-8.31254 0.0634,-1.37223 0.0825,-2.74616 0.12368,-4.119239 0.003,-7.733459 0.0117,-15.466912 0.0465,-23.200304 0.0214,-4.320506 0.0268,-8.641705 0.1248,-12.961321 0,0 -3.52055,1.793811 -3.52055,1.793811 z"
       style="stroke-width:0.264583" />
    <path
       id="path159"
       d="m 103.07132,232.53159 c 2.68775,0.35836 5.3984,0.45026 8.10555,0.52869 3.47235,0.19922 6.9247,-0.0258 10.36258,-0.50924 3.201,-0.42182 6.30028,-1.3797 9.26884,-2.62683 3.90348,-1.76268 7.60851,-3.92241 11.2175,-6.22286 2.87352,-1.84394 5.55052,-3.98602 8.19972,-6.13609 2.77453,-2.351 5.29434,-5.01914 7.58797,-7.83765 2.94445,-3.79262 4.87262,-8.17504 6.67135,-12.58721 1.93017,-4.46103 3.84513,-8.92792 5.51751,-13.49302 1.42515,-3.78764 2.01691,-7.81672 2.77581,-11.77489 1.09468,-4.75779 1.47837,-9.62142 1.73553,-14.48323 0.21586,-5.14803 0.2001,-10.30238 0.21397,-15.45394 -0.0444,-2.31727 -0.0584,-4.64689 -0.30286,-6.95486 -0.22933,-2.16537 -0.64415,-4.32068 -1.03575,-6.46067 -0.86062,-4.25649 -2.0246,-8.44107 -2.95224,-12.68247 -0.55763,-2.21627 -1.22782,-4.41573 -2.12106,-6.52245 -0.22497,-0.53059 -1.27437,-2.7546 -1.5048,-3.24586 -1.41259,-2.95161 -2.59798,-6.00274 -3.9176,-8.995117 -1.10734,-2.50671 -2.75594,-4.67592 -4.35786,-6.873298 -0.21511,-0.28667 -0.42685,-0.575908 -0.64534,-0.860015 -0.53725,-0.698616 -0.76665,-0.912738 -1.22339,-1.676408 -0.6377,-1.066231 -1.1364,-2.234684 -1.68588,-3.347018 -1.4178,-2.332601 -2.76316,-4.701673 -3.9804,-7.145486 -0.96367,-1.921293 -2.48556,-3.444147 -3.88223,-5.046935 -1.89118,-2.088898 -4.32183,-3.57578 -6.77587,-4.912061 -1.8321,-0.864698 -3.71651,-1.732952 -5.6771,-2.275649 -0.47091,-0.13035 -0.95166,-0.22211 -1.42749,-0.333164 -2.68754,-0.516715 -5.42558,-0.671385 -8.15543,-0.758071 -1.69038,-0.04316 -3.38143,-0.03596 -5.07218,-0.03058 -0.6085,0.0016 -1.21701,0.0016 -1.82551,0.0016 0,0 -3.18895,2.318599 -3.18895,2.318599 v 0 c 0.61399,-0.0043 1.22799,-0.0089 1.84198,-0.01302 1.69906,-0.0093 3.39826,-0.02601 5.09727,-0.0024 2.72295,0.05767 5.45571,0.176635 8.1395,0.675055 0.4652,0.104886 0.93507,0.190831 1.39558,0.314656 1.20995,0.325337 2.35455,0.833829 3.51598,1.293497 0.35295,0.13969 0.71466,0.257784 1.06251,0.409737 0.35935,0.15698 0.70475,0.344133 1.05712,0.516196 2.43419,1.286968 4.84624,2.720592 6.69958,4.793684 1.36634,1.584574 2.83247,3.109865 3.82862,4.968057 1.24663,2.426158 2.58546,4.795891 3.99389,7.13131 0.54608,1.134044 1.04592,2.322282 1.68506,3.408688 0.47959,0.815199 0.66466,0.965043 1.23528,1.695341 0.21989,0.281424 0.43375,0.56751 0.65062,0.851265 1.61037,2.156164 3.2499,4.302591 4.34615,6.782578 1.33051,2.988789 2.52915,6.035879 3.95212,8.983769 1.44797,3.136 2.8296,6.30629 3.59451,9.6925 0.97569,4.22176 2.12205,8.40316 2.97183,12.65375 0.37963,2.13002 0.7887,4.27215 1.0177,6.42537 0.24416,2.29571 0.26942,4.61153 0.31575,6.91683 0.004,5.14497 0.005,10.29209 -0.21692,15.43338 -0.26471,4.85656 -0.68905,9.70804 -1.79765,14.45694 -0.75841,3.9411 -1.40055,7.93847 -2.79505,11.71697 -1.6614,4.55849 -3.57184,9.01591 -5.49774,13.46782 -1.81209,4.39497 -3.76467,8.75674 -6.75639,12.50089 -2.33874,2.78791 -4.84998,5.4627 -7.65842,7.78452 -2.6549,2.14289 -5.3331,4.28037 -8.22453,6.09848 -0.43829,0.27674 -1.79734,1.01969 -1.31486,0.83023 0.66872,-0.2626 1.24346,-0.72101 1.88086,-1.05248 0.44391,-0.23086 -0.8599,0.51243 -1.30003,0.75042 -0.2756,0.14902 -2.32061,1.15891 -2.56969,1.281 -0.44256,0.21693 -0.88664,0.43076 -1.32997,0.64614 -2.94111,1.29239 -6.03706,2.2619 -9.22364,2.71824 -3.41883,0.51318 -6.85709,0.75387 -10.31515,0.55657 -2.66389,-0.0777 -5.33598,-0.16339 -7.97598,-0.55601 0,0 -3.23028,2.26639 -3.23028,2.26639 z"
       style="stroke-width:0.264583" />
  </g>
</svg>
