<?xml version="1.0" encoding="UTF-8" standalone="no"?>
<!-- Created with Inkscape (http://www.inkscape.org/) -->

<svg
   width="210mm"
   height="297mm"
   viewBox="0 0 210 297"
   version="1.1"
   id="svg5"
   inkscape:version="1.1.2 (b8e25be833, 2022-02-05)"
   sodipodi:docname="tankanim.svg"
   xmlns:inkscape="http://www.inkscape.org/namespaces/inkscape"
   xmlns:sodipodi="http://sodipodi.sourceforge.net/DTD/sodipodi-0.dtd"
   xmlns="http://www.w3.org/2000/svg"
   xmlns:svg="http://www.w3.org/2000/svg">
  <sodipodi:namedview
     id="namedview7"
     pagecolor="#505050"
     bordercolor="#eeeeee"
     borderopacity="1"
     inkscape:pageshadow="0"
     inkscape:pageopacity="0"
     inkscape:pagecheckerboard="0"
     inkscape:document-units="mm"
     showgrid="false"
     inkscape:snap-bbox="true"
     inkscape:snap-midpoints="true"
     inkscape:bbox-paths="true"
     inkscape:zoom="0.2648848"
     inkscape:cx="-1376.0699"
     inkscape:cy="460.57758"
     inkscape:window-width="1920"
     inkscape:window-height="1027"
     inkscape:window-x="-8"
     inkscape:window-y="-8"
     inkscape:window-maximized="1"
     inkscape:current-layer="layer1" />
  <defs
     id="defs2">
    <clipPath
       clipPathUnits="userSpaceOnUse"
       id="clipPath2248">
      <path
         id="path2250"
         style="fill:#ff0000;fill-opacity:1;fill-rule:nonzero;stroke:none;stroke-width:0.264583"
         d="m 36.727474,179.31515 v 25.87129 c 0.229042,0.13649 0.469633,0.29627 0.735872,0.5085 0.0075,0.006 5.3e-4,0.001 0.0093,0.007 0.04703,0.0358 0.09396,0.0713 0.141076,0.10697 0.06402,0.0488 0.128658,0.0967 0.19327,0.14469 0.153209,0.11351 0.303101,0.23149 0.452167,0.35037 0.175051,0.13843 0.346197,0.28209 0.5147,0.4284 0.119094,0.1029 0.236278,0.20718 0.354499,0.31109 0.140695,0.12506 0.281419,0.2506 0.421164,0.37672 0.170098,0.15066 0.335309,0.30622 0.500226,0.46251 0.16441,0.15829 0.32806,0.31761 0.490927,0.47749 0.178628,0.17712 0.354666,0.3567 0.530201,0.53691 0.180639,0.18733 0.3595,0.37647 0.537435,0.56638 0.155046,0.16583 0.310351,0.332 0.465603,0.49764 0.166698,0.17544 0.332491,0.35125 0.497644,0.52813 0.178734,0.19276 0.357082,0.38609 0.535885,0.57878 0.203459,0.21874 0.403897,0.44012 0.605647,0.66043 0.206679,0.22265 0.41175,0.44681 0.617019,0.67075 0.200861,0.21643 0.401751,0.43301 0.603578,0.64854 0.219143,0.23023 0.438031,0.46038 0.656291,0.69143 0.196707,0.20429 0.395427,0.40655 0.595312,0.60772 0.238075,0.23639 0.47742,0.47129 0.715719,0.70745 0.24828,0.24482 0.495644,0.49077 0.744657,0.73484 0.26789,0.26316 0.535622,0.52702 0.803053,0.79065 0.297743,0.29203 0.589637,0.58951 0.881083,0.8878 0.272582,0.27766 0.544362,0.55596 0.81597,0.83457 0.271931,0.27952 0.545507,0.55771 0.818039,0.83665 0.273261,0.27826 0.545692,0.55746 0.81907,0.8356 0.291669,0.29302 0.583753,0.58549 0.872816,0.88109 0.290237,0.29743 0.581908,0.59308 0.872815,0.88986 0.282879,0.28874 0.567997,0.5755 0.853694,0.86145 0.306605,0.30771 0.612706,0.61577 0.91984,0.92294 0.296587,0.29895 0.597559,0.59343 0.899171,0.88729 0.313033,0.30455 0.628364,0.60675 0.944128,0.90847 0.316066,0.30191 0.634402,0.60203 0.954463,0.89968 0.336603,0.3139 0.675709,0.62487 1.015442,0.93535 0.355256,0.32353 0.710573,0.64676 1.066602,0.96945 0.359322,0.32593 0.721439,0.64874 1.083138,0.97203 0.366802,0.32621 0.734607,0.65151 1.102775,0.97617 0.371028,0.32705 0.743323,0.65228 1.116211,0.9772 0.37692,0.32799 0.754825,0.65468 1.133782,0.9803 0.394891,0.33766 0.792083,0.67326 1.187524,1.01028 0.400026,0.34063 0.802735,0.67789 1.204061,1.01699 0.390691,0.33336 0.787175,0.65999 1.184423,0.98547 0.419542,0.34434 0.840994,0.68639 1.262456,1.02836 0.417256,0.33608 0.836385,0.66947 1.257287,1.00097 0.402908,0.31766 0.80848,0.63188 1.214398,0.94568 h 41.495143 c 0.1625,-0.44844 0.32495,-0.91249 0.48421,-1.40973 0.0253,-0.079 0.37574,-0.18762 0.73897,-0.28164 0.0127,-0.0768 0.0265,-0.15112 0.0388,-0.22892 0.013,-0.0819 0.99743,-0.31854 1.15496,-0.35864 0.42469,-0.0953 0.85725,-0.14347 1.28985,-0.18397 0.25501,-0.0233 0.51048,-0.0426 0.76584,-0.0615 0.26318,-0.0191 0.5263,-0.0361 0.78962,-0.0532 0.26205,-0.017 0.52389,-0.0335 0.786,-0.0496 0.27168,-0.0165 0.54371,-0.0326 0.81545,-0.0481 0.27433,-0.0156 0.54884,-0.0306 0.82321,-0.0455 0.23299,-0.0136 0.46546,-0.0311 0.69815,-0.0491 0.23594,-0.0157 0.47129,-0.0393 0.70641,-0.0641 0.22877,-0.0271 0.45638,-0.0616 0.6842,-0.0956 0.31561,-0.0474 0.6312,-0.094 0.94671,-0.14211 0.30936,-0.0477 0.6185,-0.0979 0.92759,-0.14727 0.33182,-0.0529 0.66388,-0.10439 0.99581,-0.15658 0.34708,-0.0548 0.69431,-0.1081 1.0418,-0.1602 0.15707,-0.0234 0.31418,-0.0463 0.47128,-0.0693 0.26292,-0.26001 0.52658,-0.5195 0.7891,-0.77979 0.29589,-0.29281 0.58926,-0.58783 0.88212,-0.88367 0.29941,-0.30294 0.59675,-0.60805 0.89504,-0.91209 0.29884,-0.30385 0.59684,-0.60812 0.89452,-0.91312 0.31211,-0.31993 0.62452,-0.63997 0.93689,-0.95963 0.32507,-0.33174 0.64913,-0.66451 0.97358,-0.99684 0.32444,-0.33291 0.65109,-0.66356 0.97462,-0.99736 0.31712,-0.32899 0.63465,-0.65766 0.95033,-0.98805 0.32019,-0.33655 0.64062,-0.6726 0.95963,-1.01028 0.32021,-0.34012 0.64067,-0.6803 0.96015,-1.02112 0.32108,-0.34352 0.64404,-0.6855 0.96583,-1.02836 0.32165,-0.34342 0.64444,-0.68565 0.96738,-1.02785 0.32193,-0.33994 0.64194,-0.68109 0.96377,-1.02112 0.33351,-0.3518 0.66838,-0.70241 1.00459,-1.05162 0.32872,-0.34142 0.65898,-0.68154 0.9896,-1.02113 0.31763,-0.32475 0.63457,-0.65009 0.95137,-0.97565 0.32272,-0.33268 0.6479,-0.66344 0.97358,-0.99322 0.32135,-0.32463 0.64137,-0.6505 0.96428,-0.97358 0.32477,-0.32371 0.65121,-0.64543 0.97876,-0.96635 0.31312,-0.30636 0.62546,-0.61332 0.93947,-0.91881 0.31499,-0.30647 0.63125,-0.61183 0.94775,-0.91674 0.28895,-0.27594 0.57431,-0.55619 0.85834,-0.83716 0.30555,-0.30329 0.61125,-0.60564 0.91778,-0.90795 0.32073,-0.31815 0.64431,-0.63358 0.96893,-0.94775 0.31408,-0.30267 0.62681,-0.60695 0.94,-0.91053 0.31754,-0.3074 0.63637,-0.6135 0.95342,-0.9214 0.3208,-0.3121 0.64185,-0.62386 0.96377,-0.93482 0.32929,-0.31938 0.66421,-0.63339 0.99632,-0.94981 0.33899,-0.32357 0.67941,-0.64507 1.02009,-0.96687 0.34204,-0.32246 0.68393,-0.64528 1.0263,-0.96738 0.35625,-0.33645 0.71722,-0.66787 1.07849,-0.99891 0.34723,-0.31815 0.69418,-0.63636 1.04334,-0.9524 0.0752,-0.068 0.15144,-0.13483 0.22686,-0.20257 v -24.24968 z m 0,51.84283 v 6.86573 h 7.631575 c -0.421761,-0.37288 -0.843899,-0.74544 -1.266589,-1.11724 -0.461317,-0.40373 -0.923322,-0.80597 -1.385962,-1.2082 -0.453167,-0.39433 -0.909764,-0.78514 -1.365808,-1.17615 -0.534993,-0.45678 -1.057629,-0.92767 -1.575615,-1.40354 -0.55595,-0.51183 -1.098836,-1.03759 -1.639692,-1.56527 -0.133432,-0.13098 -0.26499,-0.26384 -0.397909,-0.39533 z m 121.710396,3.40186 c -0.42335,0.39532 -0.84753,0.78958 -1.27331,1.18236 -0.50565,0.46617 -1.0144,0.92919 -1.52393,1.39113 -0.32919,0.29803 -0.66013,0.59396 -0.99064,0.89038 h 3.78788 z" />
    </clipPath>
  </defs>
  <g
     inkscape:label="Warstwa 1"
     inkscape:groupmode="layer"
     id="layer1">
    <path
       id="rect2508"
       style="fill:#000000;stroke-width:0.368238"
       d="m 105.31561,130.82114 c -2.57785,0 -4.65363,2.07924 -4.65363,4.66162 v 2.46412 h -8.641631 v 0.16214 l -5.820424,2.96769 H 65.696811 c -2.283255,0 -4.121117,1.84116 -4.121117,4.12843 v 2.06421 h -34.99059 c -0.231064,-2.21399 -2.089437,-3.92887 -4.3627,-3.92887 H 4.9391461 c -2.4305554,0 -4.38663231,1.9602 -4.38663231,4.39503 v 5.32735 c 0,2.43483 1.95607691,4.39501 4.38663231,4.39501 H 22.222404 c 2.227396,0 4.055971,-1.64647 4.346244,-3.79555 h 35.007046 v 3.66226 c 0,2.28727 1.837862,4.12842 4.121117,4.12842 h 81.497129 c 0.30508,0 0.60194,-0.035 0.8878,-0.0974 0.29669,0.0854 0.61009,0.13174 0.93492,0.13174 h 6.30807 c 1.86168,0 3.35972,-1.50186 3.35972,-3.36682 0,-0.3586 -0.0552,-0.70377 -0.15781,-1.02742 l 0.092,-7.9e-4 -7.48458,-13.10555 c -0.17919,-0.58569 -0.48796,-1.11265 -0.88778,-1.55439 l -0.18475,-0.32429 7.5e-4,0.13019 c -0.74096,-0.71885 -1.74985,-1.16152 -2.86757,-1.16152 h -6.69551 c 0.0309,-0.21769 0.0472,-0.44 0.0472,-0.6665 v -4.92745 c 0,-2.58238 -2.0743,-4.66162 -4.65216,-4.66162 z m -4.65363,9.58907 c 0,0.22652 0.0177,0.44881 0.0486,0.6665 h -0.0486 z m -55.510166,24.82666 v 16.38194 H 30.187151 l -0.249811,0.18241 -0.01571,-0.0569 -4.535472,3.37384 -6.254972,4.55795 h 0.126402 l -0.113689,0.085 5.766572,20.28508 10.756785,-8.00193 0.02095,-0.0156 5.501802,-4.02864 h 3.961805 147.831397 9.75006 v -16.24865 h -9.75006 v -16.51446 z m 4.068013,37.86517 c -6.26629,0 -11.311005,3.34054 -11.311005,7.48978 v 11.38044 c 0,1.29525 0.492082,2.512 1.358996,3.57261 l -0.06881,-7.7e-4 0.153326,0.0991 c 1.062936,1.25418 2.654665,2.28302 4.578851,2.95522 l 24.949579,16.10443 c 0.466071,0.57245 1.188522,1.03737 2.065046,1.33301 l 0.133134,0.0857 7.45e-4,-0.0436 c 0.627682,0.19581 1.327275,0.3087 2.069537,0.3087 h 99.316654 c 0.82221,0 1.59367,-0.13545 2.27074,-0.37262 l 0.003,0.13487 0.60508,-0.39133 c 0.35659,-0.17437 0.67571,-0.37962 0.94763,-0.61116 l 25.74089,-16.61503 c 1.7778,-0.64988 3.26009,-1.60757 4.28566,-2.76579 l 0.30068,-0.1941 -0.13389,7.7e-4 c 0.88136,-1.06724 1.38218,-2.29312 1.38218,-3.5999 v -11.38044 c 0,-4.14923 -5.04473,-7.48978 -11.31099,-7.48978 z" />
  </g>
</svg>
